<?xml version="1.0" standalone="no"?><!DOCTYPE svg PUBLIC "-//W3C//DTD SVG 1.1//EN" "http://www.w3.org/Graphics/SVG/1.1/DTD/svg11.dtd"><svg t="1681050645752" class="icon" viewBox="0 0 1024 1024" version="1.1" xmlns="http://www.w3.org/2000/svg" p-id="2718" xmlns:xlink="http://www.w3.org/1999/xlink" width="200" height="200"><path d="M49.493333 223.253333c16.533333-82.24 83.946667-150.293333 164.8-170.666666 72.853333-15.893333 155.52 3.52 207.68 58.453333 20.053333 19.84 40.64 39.253333 58.346667 61.226667-3.733333 2.346667-11.2 7.146667-14.933333 9.493333-27.733333-19.626667-47.253333-52.906667-82.666667-59.733333-48.746667-22.4-103.04-35.946667-156.16-21.44-2.133333 14.613333-1.173333 34.24 13.973333 41.493333 21.013333 4.906667 42.773333 5.76 63.466667 11.946667 12.586667 11.626667 22.4 25.92 32.746667 39.573333 2.986667 16.64 7.466667 33.28 7.253333 50.346667-26.453333 31.253333-55.893333 59.946667-85.12 88.64-30.72 29.76-74.56 46.613333-95.36 85.866666 18.986667 50.026667 73.28 76.906667 88.746667 129.173334-32.106667-20.586667-60.053333-46.613333-87.466667-72.853334-23.573333-23.146667-48-45.546667-69.333333-70.72-41.92-49.173333-55.573333-117.866667-45.973334-180.8z" fill="#E13D5F" p-id="2719"></path><path d="M226.56 100.586667c53.12-14.506667 107.413333-0.96 156.16 21.44-0.426667 21.973333-0.106667 44.16-3.626667 65.92-14.08 2.666667-28.266667 4.053333-42.346666 5.653333-10.346667-13.653333-20.16-27.946667-32.746667-39.573333-20.693333-6.186667-42.453333-7.04-63.466667-11.946667-15.146667-7.253333-16.106667-26.88-13.973333-41.493333z" fill="#FFFFFF" p-id="2720"></path><path d="M382.72 122.026667c35.413333 6.826667 54.933333 40.106667 82.666667 59.733333 3.733333-2.346667 11.2-7.146667 14.933333-9.493333 7.573333-8.746667 11.84 9.386667 17.92 11.626666 41.173333 49.493333 93.44 88.32 134.293333 138.026667-15.466667-2.88-30.72-6.613333-46.186666-9.386667-1.706667 5.013333-4.906667 14.826667-6.613334 19.733334-25.066667-23.146667-48.746667-48-75.52-69.226667-13.12-13.12-37.226667-1.6-37.546666 16.32 2.56 10.56 7.146667 20.373333 11.306666 30.4-44.373333 16.426667-59.306667 65.706667-97.92 89.386667-48.106667 30.826667-82.24 78.613333-111.893333 126.4 6.4 28.586667 19.946667 54.826667 31.786667 81.386666-15.466667-8.853333-29.333333-20.373333-41.706667-33.28-31.36-32.746667-65.28-63.253333-93.44-98.88 27.413333 26.24 55.36 52.266667 87.466667 72.853334-15.466667-52.266667-69.76-79.146667-88.746667-129.173334 20.8-39.253333 64.64-56.106667 95.36-85.866666 29.226667-28.693333 58.666667-57.386667 85.12-88.64 0.213333-17.066667-4.266667-33.706667-7.253333-50.346667 14.08-1.6 28.266667-2.986667 42.346666-5.653333 3.52-21.76 3.2-43.946667 3.626667-65.92z" fill="#D0385C" p-id="2721"></path><path d="M466.666667 279.36c0.32-17.92 24.426667-29.44 37.546666-16.32 26.773333 21.226667 50.453333 46.08 75.52 69.226667 8 12.693333 16.426667 25.173333 22.613334 38.826666-10.88 8.106667-25.066667 27.946667-39.68 16.32-30.506667-23.146667-55.573333-52.693333-84.693334-77.653333-4.16-10.026667-8.746667-19.84-11.306666-30.4z" fill="#CD5F7D" p-id="2722"></path><path d="M586.346667 312.533333c15.466667 2.773333 30.72 6.506667 46.186666 9.386667 18.453333 5.226667 29.546667 23.786667 41.173334 37.76-57.706667 42.88-103.36 99.093333-156.693334 146.88-50.346667 55.893333-107.733333 104.746667-157.76 160.853333-22.08-17.6-42.666667-37.546667-59.306666-60.48-11.84-26.56-25.386667-52.8-31.786667-81.386666 29.653333-47.786667 63.786667-95.573333 111.893333-126.4 38.613333-23.68 53.546667-72.96 97.92-89.386667 29.12 24.96 54.186667 54.506667 84.693334 77.653333 14.613333 11.626667 28.8-8.213333 39.68-16.32-6.186667-13.653333-14.613333-26.133333-22.613334-38.826666 1.706667-4.906667 4.906667-14.72 6.613334-19.733334z" fill="#C0345A" p-id="2723"></path><path d="M517.013333 506.56c53.333333-47.786667 98.986667-104 156.693334-146.88 80.426667 83.52 166.186667 161.813333 245.866666 246.08 76.053333 79.573333 74.56 220.693333-6.506666 296.426667-41.706667 46.506667-103.893333 72.106667-166.293334 66.026666-59.093333 3.626667-114.453333-25.493333-154.773333-66.773333-77.76-77.866667-157.12-154.24-232.746667-234.026667 50.026667-56.106667 107.413333-104.96 157.76-160.853333m127.893334-75.2c-4.266667 7.68-7.146667 15.786667-8.96 24.32 14.293333 26.026667 37.333333 45.546667 58.026666 66.346667 52.906667 50.56 101.333333 106.24 159.893334 150.506666 6.933333 7.36 24.106667 6.4 25.386666-5.866666 15.04-30.293333-21.333333-48.426667-36.693333-69.12-45.76-57.066667-97.493333-108.8-150.293333-159.253334-12.48-12.586667-31.68-9.92-47.36-6.933333m-31.36 140.266667c-31.786667 13.76-60.8 42.773333-62.826667 79.04 3.84 40.213333 30.613333 79.253333 70.72 90.133333 27.413333 3.946667 55.253333 1.813333 82.773333 4.8 22.293333 39.04 6.826667 91.84 38.613334 126.613333 30.72-52.693333 39.893333-114.56 54.08-173.12-19.733333-2.453333-39.573333-2.88-59.2-5.866666-15.146667-36.586667-19.84-81.92-55.68-105.6-19.946667-11.733333-45.12-24.213333-68.48-16z" fill="#F3CA57" p-id="2724"></path><path d="M644.906667 431.36c15.68-2.986667 34.88-5.653333 47.36 6.933333 52.8 50.453333 104.533333 102.186667 150.293333 159.253334 15.36 20.693333 51.733333 38.826667 36.693333 69.12-1.28 12.266667-18.453333 13.226667-25.386666 5.866666-58.56-44.266667-106.986667-99.946667-159.893334-150.506666-20.693333-20.8-43.733333-40.32-58.026666-66.346667 1.813333-8.533333 4.693333-16.64 8.96-24.32zM613.546667 571.626667c23.36-8.213333 48.533333 4.266667 68.48 16 35.84 23.68 40.533333 69.013333 55.68 105.6 19.626667 2.986667 39.466667 3.413333 59.2 5.866666-14.186667 58.56-23.36 120.426667-54.08 173.12-31.786667-34.773333-16.32-87.573333-38.613334-126.613333-27.52-2.986667-55.36-0.853333-82.773333-4.8-40.106667-10.88-66.88-49.92-70.72-90.133333 2.026667-36.266667 31.04-65.28 62.826667-79.04m-4.8 35.093333c-28.586667 13.76-30.72 48.32-23.573334 75.413333 25.813333 35.626667 87.36 53.226667 121.493334 21.973334-3.626667-30.613333-8.96-65.28-32.96-87.146667-16.533333-17.493333-43.626667-15.36-64.96-10.24m141.013333 120.213333c-15.786667 5.973333-13.866667 29.76-0.426667 37.226667 20.266667 1.386667 24.746667-42.56 0.426667-37.226667z" fill="#FBDD81" p-id="2725"></path><path d="M608.746667 606.72c21.333333-5.12 48.426667-7.253333 64.96 10.24 24 21.866667 29.333333 56.533333 32.96 87.146667-34.133333 31.253333-95.68 13.653333-121.493334-21.973334-7.146667-27.093333-5.013333-61.653333 23.573334-75.413333zM749.76 726.933333c24.32-5.333333 19.84 38.613333-0.426667 37.226667-13.44-7.466667-15.36-31.253333 0.426667-37.226667z" fill="#F3CA57" p-id="2726"></path></svg>